Coordinates
version=1
nRows=6
nColumns=36
inDegrees=yes

Units are S.I. units (second, meters, Newtons, ...)
If the header above contains a line with 'inDegrees', this indicates whether rotational values are in degrees (yes) or radians (no).

endheader
time	pelvis_tilt	pelvis_list	pelvis_rotation	pelvis_tx	pelvis_ty	pelvis_tz	hip_flexion_r	hip_adduction_r	hip_rotation_r	knee_angle_r	knee_angle_r_beta	ankle_angle_r	subtalar_angle_r	mtp_angle_r	hip_flexion_l	hip_adduction_l	hip_rotation_l	knee_angle_l	knee_angle_l_beta	ankle_angle_l	subtalar_angle_l	mtp_angle_l	lumbar_extension	lumbar_bending	lumbar_rotation	arm_flex_r	arm_add_r	arm_rot_r	elbow_flex_r	pro_sup_r	arm_flex_l	arm_add_l	arm_rot_l	elbow_flex_l	pro_sup_l
      4.35000000	    -12.69958931	     -5.44152397	     16.24666245	      0.10021682	      0.89466473	     -0.35577478	     54.69354923	     -8.35259322	     -9.65199674	     54.43006414	      0.94998383	     13.69078723	     -8.42305762	     -7.49999987	     53.81876219	    -11.96277604	     -6.07857169	     56.56548243	      0.98725391	      7.42307738	     -9.60901852	     -7.49999987	    -14.89458891	     -2.95727859	     -0.53052336	      9.46421274	    -24.21476657	     28.18934885	     55.64154811	     57.28765948	      5.63648075	    -31.73526648	     32.12172063	     71.29852271	     62.86429236
      4.36666670	    -14.85675564	     -6.38165829	     16.03336643	      0.11026844	      0.86013774	     -0.35654590	     61.73244319	     -8.12319710	     -7.74833272	     63.43915306	      1.10722210	     18.96279876	     -9.65270508	     -7.49999987	     60.51760777	    -12.97829571	     -4.74994028	     65.24790795	      1.13879082	     13.04412238	     -9.94484178	     -7.49999987	    -14.28558389	     -2.46638679	     -0.22327372	      9.59545905	    -23.11551469	     23.89515027	     56.93533128	     56.92941099	      6.24486678	    -31.40498776	     30.09491339	     70.80965153	     63.77315454
      4.38333330	    -16.43388218	     -7.34032717	     16.30436280	      0.11939938	      0.82047095	     -0.34991084	     68.40829456	     -7.71537264	     -6.37863826	     72.57184934	      1.26661772	     23.21557726	    -10.68703915	     -7.49999987	     67.26524047	    -14.07660565	     -3.23225915	     73.95366650	      1.29073497	     19.02441996	     -8.95450789	     -7.49999987	    -14.58001269	     -1.91352803	     -0.87789379	     10.86448961	    -22.26630125	     22.29886985	     57.55200665	     56.87804086	      8.11599014	    -31.44712725	     28.79882237	     70.08983425	     64.20226305
      4.40000000	    -17.57074472	     -8.33273234	     16.34769460	      0.11284137	      0.80383276	     -0.35318230	     73.33654339	     -7.20686973	     -5.76388682	     78.60103478	      1.37184685	     25.10264873	    -12.23810503	     -7.49999987	     72.71961572	    -14.96771672	     -1.93443467	     80.25709663	      1.40075058	     22.27962574	     -9.16671843	     -7.49999987	    -15.92099896	     -0.82610466	     -0.08522800	     11.72819543	    -21.86431100	     17.92248901	     58.62088075	     59.47049791	     12.40887507	    -30.07711859	     28.47736968	     67.45353928	     68.81899751
      4.41666670	    -18.22779749	     -8.41242144	     15.93932711	      0.11150217	      0.76744180	     -0.35740063	     77.95736241	     -7.08908659	     -4.61230979	     84.79937700	      1.48002833	     27.44487497	    -12.21991636	     -7.49999987	     77.15773355	    -15.58250233	     -1.00323032	     86.62042439	      1.51181161	     25.92317871	     -9.29253252	     -7.49999987	    -16.65313558	     -0.44343306	     -0.38648578	     14.16377207	    -21.84870841	     18.00620825	     58.78380721	     59.84144632	     14.97219136	    -29.29862023	     27.46261264	     65.50468123	     69.64610447
      4.43333330	    -19.04203769	     -8.55759190	     15.48979212	      0.10969261	      0.74376909	     -0.35471195	     81.96948112	     -6.81138859	     -3.66824347	     89.57731301	      1.56341905	     28.91719583	    -12.47527081	     -7.49999987	     81.21256235	    -15.88947271	      0.04001319	     91.92309243	      1.60436062	     27.98606986	    -10.04157962	     -7.49999987	    -17.17658391	      0.00795077	      0.02812515	     17.76775793	    -22.39181926	     18.09243821	     59.13441352	     61.40737145	     19.43042957	    -28.29360530	     27.48523247	     65.09484455	     71.23083118
